<svg width="1050" height="600" viewBox="0 0 1050 600" xmlns="http://www.w3.org/2000/svg">
  <!-- Background -->
  <rect width="1050" height="600" fill="#fafaf9" />
  
  <!-- Accent Line -->
  <rect x="0" y="580" width="1050" height="20" fill="#d97706" />
  
  <!-- Brand Logo -->
  <text x="50" y="80" font-family="Serif" font-size="28" font-weight="900" font-style="italic" fill="#1c1917" letter-spacing="-1">BEST OF CEBU</text>
  <rect x="50" y="95" width="40" height="2" fill="#d97706" />

  <!-- Name and Title -->
  <text x="50" y="280" font-family="Serif" font-size="64" font-weight="bold" fill="#1c1917">Criste Joy</text>
  <text x="50" y="330" font-family="Sans-serif" font-size="20" font-weight="bold" fill="#d97706" letter-spacing="3">EDITORIAL CONTRIBUTOR</text>
  
  <!-- Contact Details -->
  <g transform="translate(50, 450)">
    <text x="0" y="0" font-family="Sans-serif" font-size="18" fill="#57534e">bestofcebu.com</text>
    <text x="0" y="35" font-family="Sans-serif" font-size="18" fill="#57534e">cristejoycalosor13@gmail.com</text>
    <text x="0" y="70" font-family="Sans-serif" font-size="16" font-weight="bold" fill="#78716c">@bestofcebu_official</text>
  </g>
  
  <!-- QR Code Section (Right Side) -->
  <g transform="translate(800, 360)">
    <!-- QR Background Box -->
    <rect width="180" height="180" rx="10" fill="white" stroke="#e7e5e4" stroke-width="1" />
    
    <!-- Representative QR Pattern -->
    <path d="M20 20 h40 v40 h-40 z M30 30 h20 v20 h-20 z" fill="#1c1917" />
    <path d="M120 20 h40 v40 h-40 z M130 30 h20 v20 h-20 z" fill="#1c1917" />
    <path d="M20 120 h40 v40 h-40 z M30 130 h20 v20 h-20 z" fill="#1c1917" />
    <rect x="70" y="20" width="10" height="10" fill="#d97706" />
    <rect x="90" y="40" width="20" height="20" fill="#1c1917" />
    <rect x="70" y="70" width="40" height="10" fill="#1c1917" />
    <rect x="120" y="70" width="10" height="40" fill="#1c1917" />
    <rect x="40" y="80" width="20" height="10" fill="#1c1917" />
    <rect x="80" y="100" width="30" height="30" fill="#d97706" opacity="0.5" />
    <rect x="140" y="120" width="20" height="20" fill="#1c1917" />
    <rect x="120" y="150" width="40" height="10" fill="#1c1917" />
    
    <text x="90" y="205" font-family="Sans-serif" font-size="12" font-weight="bold" fill="#a8a29e" text-anchor="middle" letter-spacing="1">SCAN TO EXPLORE</text>
  </g>

  <!-- Right Side Visual (Minimalist Geometric) -->
  <path d="M700 0 L1050 0 L1050 300 L950 300 Z" fill="#1c1917" opacity="0.03" />
</svg>
